<svg width="262" height="49" viewBox="0 0 262 49" fill="none" xmlns="http://www.w3.org/2000/svg">
<path fill-rule="evenodd" clip-rule="evenodd" d="M34.5218 44.9198C31.5728 46.2684 28.2936 47.0201 24.8388 47.0201C15.0205 47.0201 6.62017 40.9493 3.18671 32.3565C3.03919 31.2257 3.02907 30.2007 3.12468 29.3629C3.18949 28.7951 3.86052 28.6766 4.20348 29.1339C4.56511 29.616 5.32379 29.4664 5.47525 28.883L5.55547 28.5741C5.75515 27.805 6.79489 27.6807 7.17013 28.3812L7.356 28.7281C7.57986 29.1459 8.14679 29.2226 8.47363 28.8793C8.9069 28.4242 9.67376 28.7308 9.67376 29.3592V31.2324C9.67376 36.3226 12.4623 40.4835 14.392 41.4705C15.0879 37.7292 16.8805 32.8847 18.302 29.5464C12.1094 28.2462 9.03271 24.6598 13.1082 18.4985C13.1082 17.1787 13.3284 15.9104 13.7342 14.7283C13.6076 14.6695 13.482 14.6043 13.3581 14.5328C11.5477 13.4875 10.7579 11.4661 11.5941 10.0178C12.4303 8.56942 14.5758 8.24265 16.3862 9.28789C16.633 9.4304 16.8609 9.59105 17.0682 9.76592C19.1107 7.97573 21.7866 6.89062 24.716 6.89062C27.6442 6.89062 30.3192 7.97489 32.3614 9.76384C32.5681 9.58977 32.7951 9.42983 33.0409 9.28789C34.8513 8.24265 36.9968 8.56942 37.833 10.0178C38.6692 11.4661 37.8795 13.4875 36.0691 14.5328C35.9465 14.6036 35.8223 14.668 35.6972 14.7263C36.1033 15.909 36.3238 17.178 36.3238 18.4985C40.7428 24.641 37.1947 28.2816 30.5248 29.5726C30.813 30.029 31.1072 30.4892 31.4025 30.9512C34.6886 36.0923 38.1187 41.4588 35.1752 44.3853C34.989 44.5705 34.7699 44.7486 34.5218 44.9198ZM29.8622 21.8885H24.8153V23.7999C24.8153 25.1936 25.9451 26.3234 27.3388 26.3234C28.7324 26.3234 29.8622 25.1936 29.8622 23.7999V21.8885ZM24.3106 21.8885H19.2638V23.7999C19.2638 25.1936 20.3935 26.3234 21.7872 26.3234C23.1809 26.3234 24.3106 25.1936 24.3106 23.7999V21.8885Z" fill="url(#paint0_linear_30_8193)"/>
<path d="M14.9297 16.0781H22.5859V19.5234H14.9297V16.0781Z" fill="#F0B43D"/>
<path d="M24.5 16.0781H32.1562V19.5234H24.5V16.0781Z" fill="#F0B43D"/>
<path d="M22.2031 17.2266H24.8828V17.9922H22.2031V17.2266Z" fill="#F0B43D"/>
<path d="M64.8 30.336C66.4213 31.0827 67.232 31.9573 67.232 32.96C67.232 33.5787 66.9653 34.1227 66.432 34.592C65.92 35.0613 65.2693 35.4133 64.48 35.648C63.712 35.8827 62.976 36.0533 62.272 36.16C61.568 36.2667 60.928 36.32 60.352 36.32C58.9653 36.32 57.6427 36.1387 56.384 35.776C55.1253 35.392 53.92 34.8053 52.768 34.016C51.6373 33.2053 50.7307 32.064 50.048 30.592C49.3653 29.0987 49.024 27.36 49.024 25.376C49.024 21.9627 50.0373 19.296 52.064 17.376C54.0907 15.4347 56.8427 14.464 60.32 14.464C62.176 14.464 63.7333 14.8053 64.992 15.488C66.272 16.1493 66.912 16.9707 66.912 17.952C66.912 18.6987 66.6027 19.3067 65.984 19.776C65.3653 20.2453 64.544 20.544 63.52 20.672C63.1573 19.6907 62.5813 18.9547 61.792 18.464C61.0027 17.952 60.16 17.696 59.264 17.696C57.792 17.696 56.576 18.368 55.616 19.712C54.6773 21.056 54.208 22.7307 54.208 24.736C54.208 27.104 54.688 29.088 55.648 30.688C56.6293 32.288 57.9947 33.088 59.744 33.088C60.7253 33.088 61.664 32.864 62.56 32.416C63.4773 31.968 64.224 31.2747 64.8 30.336ZM82.429 34.208C80.9997 35.616 79.1223 36.32 76.797 36.32C74.4717 36.32 72.5943 35.616 71.165 34.208C69.757 32.8 69.053 30.9227 69.053 28.576C69.053 26.1227 69.757 24.16 71.165 22.688C72.5943 21.216 74.4717 20.48 76.797 20.48C79.1223 20.48 80.9997 21.216 82.429 22.688C83.8583 24.16 84.573 26.1227 84.573 28.576C84.573 30.9227 83.8583 32.8 82.429 34.208ZM79.805 29.216C79.805 27.5947 79.5383 26.2507 79.005 25.184C78.4717 24.096 77.7357 23.552 76.797 23.552C75.8797 23.552 75.1543 23.9893 74.621 24.864C74.109 25.7387 73.853 26.8907 73.853 28.32C73.853 29.728 74.109 30.9013 74.621 31.84C75.1543 32.7573 75.8797 33.216 76.797 33.216C77.757 33.216 78.493 32.8533 79.005 32.128C79.5383 31.3813 79.805 30.4107 79.805 29.216ZM86.28 26.7C86.8267 26.5267 87.3467 26.44 87.84 26.44C88.8133 26.44 89.3667 26.8333 89.5 27.62C90.3667 26.7533 91.3533 26.32 92.46 26.32C93.3667 26.32 94.1133 26.58 94.7 27.1C95.2867 27.62 95.58 28.36 95.58 29.32C95.58 29.3467 95.5667 29.8267 95.54 30.76C95.5267 31.6933 95.52 32.4 95.52 32.88C95.52 34.0267 95.6333 35 95.86 35.8C95.2867 35.9733 94.7067 36.06 94.12 36.06C93.0533 36.06 92.52 35.6533 92.52 34.84C92.52 34.36 92.54 33.48 92.58 32.2C92.62 30.9067 92.64 30.1267 92.64 29.86C92.64 29.3133 92.5267 28.9067 92.3 28.64C92.0867 28.36 91.8067 28.22 91.46 28.22C90.9 28.22 90.28 28.5467 89.6 29.2C89.6267 30.9067 89.64 32.14 89.64 32.9C89.64 34.0733 89.6733 35.1 89.74 35.98C89.3 36.02 88.9067 36.04 88.56 36.04C87.2267 36.04 86.56 35.72 86.56 35.08C86.56 35.0267 86.5733 34.56 86.6 33.68C86.64 32.8 86.66 31.8867 86.66 30.94C86.66 28.7667 86.5333 27.3533 86.28 26.7ZM97.4128 26.7C97.9595 26.5267 98.4795 26.44 98.9728 26.44C99.9461 26.44 100.499 26.8333 100.633 27.62C101.499 26.7533 102.486 26.32 103.593 26.32C104.499 26.32 105.246 26.58 105.833 27.1C106.419 27.62 106.713 28.36 106.713 29.32C106.713 29.3467 106.699 29.8267 106.673 30.76C106.659 31.6933 106.653 32.4 106.653 32.88C106.653 34.0267 106.766 35 106.993 35.8C106.419 35.9733 105.839 36.06 105.253 36.06C104.186 36.06 103.653 35.6533 103.653 34.84C103.653 34.36 103.673 33.48 103.713 32.2C103.753 30.9067 103.773 30.1267 103.773 29.86C103.773 29.3133 103.659 28.9067 103.433 28.64C103.219 28.36 102.939 28.22 102.593 28.22C102.033 28.22 101.413 28.5467 100.733 29.2C100.759 30.9067 100.773 32.14 100.773 32.9C100.773 34.0733 100.806 35.1 100.873 35.98C100.433 36.02 100.039 36.04 99.6928 36.04C98.3595 36.04 97.6928 35.72 97.6928 35.08C97.6928 35.0267 97.7061 34.56 97.7328 33.68C97.7728 32.8 97.7928 31.8867 97.7928 30.94C97.7928 28.7667 97.6661 27.3533 97.4128 26.7ZM113.386 26.3C114.372 26.3 115.226 26.5467 115.946 27.04C116.666 27.5333 117.026 28.2667 117.026 29.24C117.026 31.2133 115.612 32.2 112.786 32.2C112.532 32.2 112.072 32.1867 111.406 32.16C111.406 32.92 111.592 33.4733 111.966 33.82C112.352 34.1667 112.826 34.34 113.386 34.34C114.372 34.34 115.139 34.02 115.686 33.38C115.992 33.5267 116.239 33.7267 116.426 33.98C116.626 34.22 116.726 34.4667 116.726 34.72C116.726 35.12 116.486 35.44 116.006 35.68C115.539 35.92 115.079 36.0667 114.626 36.12C114.186 36.1733 113.759 36.2 113.346 36.2C111.879 36.2 110.679 35.8 109.746 35C108.812 34.1867 108.346 32.9533 108.346 31.3C108.346 30.2067 108.599 29.2733 109.106 28.5C109.626 27.7133 110.252 27.1533 110.986 26.82C111.732 26.4733 112.532 26.3 113.386 26.3ZM113.226 28.2C112.746 28.2 112.326 28.42 111.966 28.86C111.606 29.2867 111.419 29.92 111.406 30.76C111.779 30.7333 112.039 30.7133 112.186 30.7C112.346 30.6733 112.566 30.6267 112.846 30.56C113.139 30.4933 113.346 30.4067 113.466 30.3C113.599 30.18 113.719 30.02 113.826 29.82C113.932 29.6067 113.986 29.3467 113.986 29.04C113.986 28.8267 113.912 28.6333 113.766 28.46C113.619 28.2867 113.439 28.2 113.226 28.2ZM123.229 34.3C123.643 34.3 124.029 34.2 124.389 34C124.763 33.7867 125.016 33.5 125.149 33.14C125.749 33.3533 126.143 33.56 126.329 33.76C126.516 33.96 126.609 34.2 126.609 34.48C126.609 35.0267 126.289 35.4533 125.649 35.76C125.009 36.0533 124.176 36.2 123.149 36.2C121.656 36.2 120.456 35.7867 119.549 34.96C118.643 34.12 118.189 32.9533 118.189 31.46C118.189 30.58 118.336 29.8 118.629 29.12C118.936 28.44 119.329 27.9 119.809 27.5C120.289 27.1 120.809 26.8 121.369 26.6C121.929 26.4 122.496 26.3 123.069 26.3C123.909 26.3 124.709 26.4733 125.469 26.82C126.243 27.1667 126.629 27.6467 126.629 28.26C126.629 29.0733 125.976 29.56 124.669 29.72C124.549 29.2667 124.336 28.9067 124.029 28.64C123.723 28.3733 123.383 28.24 123.009 28.24C122.516 28.24 122.089 28.4933 121.729 29C121.369 29.4933 121.189 30.2267 121.189 31.2C121.189 33.2667 121.869 34.3 123.229 34.3ZM129.081 32.38V28.38C128.387 28.3933 127.794 28.44 127.301 28.52C127.194 28.2267 127.141 27.9467 127.141 27.68C127.141 26.8933 127.681 26.5 128.761 26.5H129.041C129.014 25.6867 128.974 25.0067 128.921 24.46C129.347 24.2867 129.834 24.2 130.381 24.2C130.741 24.2 131.021 24.22 131.221 24.26C131.434 24.2867 131.634 24.3933 131.821 24.58C132.021 24.7667 132.121 25.04 132.121 25.4C132.121 25.6133 132.101 25.9867 132.061 26.52C133.447 26.52 134.547 26.4667 135.361 26.36C135.454 26.5467 135.501 26.8333 135.501 27.22C135.501 27.9267 135.107 28.3 134.321 28.34C133.814 28.3667 133.047 28.38 132.021 28.38C131.981 29.7 131.961 31.02 131.961 32.34C131.961 32.66 131.967 32.9067 131.981 33.08C131.994 33.24 132.027 33.44 132.081 33.68C132.147 33.92 132.254 34.0933 132.401 34.2C132.561 34.3067 132.761 34.36 133.001 34.36C133.667 34.36 134.201 34.16 134.601 33.76C135.147 34.1467 135.421 34.54 135.421 34.94C135.421 35.3133 135.187 35.62 134.721 35.86C134.267 36.0867 133.721 36.2 133.081 36.2C131.627 36.2 130.594 35.88 129.981 35.24C129.381 34.6 129.081 33.6467 129.081 32.38ZM138.255 25.6C137.749 25.6 137.315 25.4267 136.955 25.08C136.609 24.72 136.435 24.2667 136.435 23.72C136.435 23.2 136.622 22.76 136.995 22.4C137.369 22.04 137.802 21.86 138.295 21.86C138.789 21.86 139.209 22.04 139.555 22.4C139.915 22.76 140.095 23.2 140.095 23.72C140.095 24.2533 139.909 24.7 139.535 25.06C139.162 25.42 138.735 25.6 138.255 25.6ZM138.295 26.44C138.802 26.44 139.195 26.5267 139.475 26.7C139.755 26.8733 139.895 27.2133 139.895 27.72C139.895 27.8 139.869 28.3867 139.815 29.48C139.775 30.5733 139.755 31.3933 139.755 31.94C139.755 33.8333 139.869 35.12 140.095 35.8C139.535 35.9733 138.982 36.06 138.435 36.06C137.809 36.06 137.369 35.9533 137.115 35.74C136.875 35.5133 136.755 35.1867 136.755 34.76C136.755 34.5467 136.762 34.0467 136.775 33.26C136.802 32.4733 136.815 31.8467 136.815 31.38C136.815 29.4733 136.769 27.9133 136.675 26.7C137.182 26.5267 137.722 26.44 138.295 26.44ZM149.772 34.88C148.879 35.76 147.705 36.2 146.252 36.2C144.799 36.2 143.625 35.76 142.732 34.88C141.852 34 141.412 32.8267 141.412 31.36C141.412 29.8267 141.852 28.6 142.732 27.68C143.625 26.76 144.799 26.3 146.252 26.3C147.705 26.3 148.879 26.76 149.772 27.68C150.665 28.6 151.112 29.8267 151.112 31.36C151.112 32.8267 150.665 34 149.772 34.88ZM148.132 31.76C148.132 30.7467 147.965 29.9067 147.632 29.24C147.299 28.56 146.839 28.22 146.252 28.22C145.679 28.22 145.225 28.4933 144.892 29.04C144.572 29.5867 144.412 30.3067 144.412 31.2C144.412 32.08 144.572 32.8133 144.892 33.4C145.225 33.9733 145.679 34.26 146.252 34.26C146.852 34.26 147.312 34.0333 147.632 33.58C147.965 33.1133 148.132 32.5067 148.132 31.76ZM152.471 26.7C153.018 26.5267 153.538 26.44 154.031 26.44C155.005 26.44 155.558 26.8333 155.691 27.62C156.558 26.7533 157.545 26.32 158.651 26.32C159.558 26.32 160.305 26.58 160.891 27.1C161.478 27.62 161.771 28.36 161.771 29.32C161.771 29.3467 161.758 29.8267 161.731 30.76C161.718 31.6933 161.711 32.4 161.711 32.88C161.711 34.0267 161.825 35 162.051 35.8C161.478 35.9733 160.898 36.06 160.311 36.06C159.245 36.06 158.711 35.6533 158.711 34.84C158.711 34.36 158.731 33.48 158.771 32.2C158.811 30.9067 158.831 30.1267 158.831 29.86C158.831 29.3133 158.718 28.9067 158.491 28.64C158.278 28.36 157.998 28.22 157.651 28.22C157.091 28.22 156.471 28.5467 155.791 29.2C155.818 30.9067 155.831 32.14 155.831 32.9C155.831 34.0733 155.865 35.1 155.931 35.98C155.491 36.02 155.098 36.04 154.751 36.04C153.418 36.04 152.751 35.72 152.751 35.08C152.751 35.0267 152.765 34.56 152.791 33.68C152.831 32.8 152.851 31.8867 152.851 30.94C152.851 28.7667 152.725 27.3533 152.471 26.7ZM177.064 22.848V22.208C177.064 19.8613 176.968 17.44 176.776 14.944C177.587 14.7733 178.43 14.688 179.304 14.688C180.115 14.688 180.798 14.8267 181.352 15.104C181.928 15.3813 182.216 15.8187 182.216 16.416C182.216 16.5227 182.174 17.3867 182.088 19.008C182.024 20.6293 181.992 21.984 181.992 23.072V29.504C181.992 31.8933 182.248 33.9413 182.76 35.648C181.971 35.9467 181 36.096 179.848 36.096C179.422 36.096 179.07 36.064 178.792 36C178.515 35.9573 178.216 35.8613 177.896 35.712C177.598 35.5413 177.374 35.264 177.224 34.88C177.075 34.4747 177 33.9627 177 33.344C177 32.9387 177.011 32.1813 177.032 31.072C177.054 29.9413 177.064 29.12 177.064 28.608V25.984C176.254 26.0267 175.006 26.048 173.32 26.048C171.571 26.048 170.27 26.0267 169.416 25.984V29.504C169.416 31.8933 169.672 33.9413 170.184 35.648C169.395 35.9467 168.424 36.096 167.272 36.096C166.846 36.096 166.494 36.064 166.216 36C165.939 35.9573 165.64 35.8613 165.32 35.712C165.022 35.5413 164.798 35.264 164.648 34.88C164.499 34.4747 164.424 33.9627 164.424 33.344C164.424 32.9387 164.435 32.1813 164.456 31.072C164.478 29.9413 164.488 29.12 164.488 28.608V22.208C164.488 19.8613 164.392 17.44 164.2 14.944C165.011 14.7733 165.854 14.688 166.728 14.688C167.539 14.688 168.222 14.8267 168.776 15.104C169.352 15.3813 169.64 15.8187 169.64 16.416C169.64 16.5227 169.598 17.3547 169.512 18.912C169.448 20.4693 169.416 21.7813 169.416 22.848C170.227 22.8907 171.528 22.912 173.32 22.912C175.027 22.912 176.275 22.8907 177.064 22.848ZM200.585 35.68C199.539 35.9573 198.643 36.096 197.897 36.096C197.214 36.096 196.627 35.9467 196.137 35.648C195.667 35.328 195.411 34.8693 195.369 34.272C193.811 35.6373 192.126 36.32 190.313 36.32C187.305 36.32 185.801 34.816 185.801 31.808C185.801 31.744 185.811 30.9653 185.833 29.472C185.875 27.9787 185.897 26.8587 185.897 26.112C185.897 23.8933 185.726 22.2293 185.385 21.12C186.217 20.8427 187.081 20.704 187.977 20.704C189.811 20.704 190.729 21.3547 190.729 22.656C190.729 23.36 190.697 24.672 190.633 26.592C190.569 28.512 190.537 29.664 190.537 30.048C190.537 31.072 190.697 31.8613 191.017 32.416C191.358 32.9707 191.774 33.248 192.265 33.248C193.353 33.248 194.366 32.7467 195.305 31.744C195.283 30.912 195.273 29.6213 195.273 27.872C195.273 25.3973 195.198 23.1467 195.049 21.12C195.902 20.8427 196.723 20.704 197.513 20.704C198.366 20.704 199.027 20.832 199.497 21.088C199.966 21.344 200.201 21.8773 200.201 22.688C200.201 22.9013 200.169 23.552 200.105 24.64C200.062 25.728 200.03 26.5813 200.009 27.2V29.504C200.009 32.2133 200.201 34.272 200.585 35.68ZM208.416 22.24C209.654 21.088 210.987 20.512 212.416 20.512C214.336 20.512 215.819 21.216 216.864 22.624C217.91 24.0107 218.432 25.8027 218.432 28C218.432 30.3467 217.76 32.32 216.416 33.92C215.072 35.52 213.142 36.32 210.624 36.32C207.894 36.32 205.547 35.5947 203.584 34.144C203.734 32.864 203.808 30.5707 203.808 27.264C203.808 24.512 203.744 21.3653 203.616 17.824C203.51 15.2 203.328 13.472 203.072 12.64C204.075 12.3627 204.971 12.224 205.76 12.224C207.595 12.224 208.512 12.9173 208.512 14.304C208.512 14.3253 208.491 15.872 208.448 18.944C208.448 19.4987 208.438 20.1387 208.416 20.864C208.416 21.5893 208.416 22.048 208.416 22.24ZM208.48 24.8C208.48 25.0347 208.48 25.664 208.48 26.688C208.502 27.6907 208.512 28.4907 208.512 29.088C208.512 30.7307 208.47 31.8933 208.384 32.576C209.28 33.024 210.102 33.248 210.848 33.248C212.747 33.248 213.696 31.6053 213.696 28.32C213.696 27.8507 213.664 27.392 213.6 26.944C213.558 26.496 213.462 25.9947 213.312 25.44C213.184 24.864 212.95 24.4053 212.608 24.064C212.267 23.7227 211.851 23.552 211.36 23.552C210.528 23.552 209.568 23.968 208.48 24.8ZM221.69 36.2C221.184 36.2 220.75 36.0267 220.39 35.68C220.044 35.32 219.87 34.8667 219.87 34.32C219.87 33.8 220.057 33.36 220.43 33C220.804 32.64 221.237 32.46 221.73 32.46C222.224 32.46 222.644 32.64 222.99 33C223.35 33.36 223.53 33.8 223.53 34.32C223.53 34.8533 223.344 35.3 222.97 35.66C222.597 36.02 222.17 36.2 221.69 36.2ZM229.929 34.3C230.342 34.3 230.729 34.2 231.089 34C231.462 33.7867 231.715 33.5 231.849 33.14C232.449 33.3533 232.842 33.56 233.029 33.76C233.215 33.96 233.309 34.2 233.309 34.48C233.309 35.0267 232.989 35.4533 232.349 35.76C231.709 36.0533 230.875 36.2 229.849 36.2C228.355 36.2 227.155 35.7867 226.249 34.96C225.342 34.12 224.889 32.9533 224.889 31.46C224.889 30.58 225.035 29.8 225.329 29.12C225.635 28.44 226.029 27.9 226.509 27.5C226.989 27.1 227.509 26.8 228.069 26.6C228.629 26.4 229.195 26.3 229.769 26.3C230.609 26.3 231.409 26.4733 232.169 26.82C232.942 27.1667 233.329 27.6467 233.329 28.26C233.329 29.0733 232.675 29.56 231.369 29.72C231.249 29.2667 231.035 28.9067 230.729 28.64C230.422 28.3733 230.082 28.24 229.709 28.24C229.215 28.24 228.789 28.4933 228.429 29C228.069 29.4933 227.889 30.2267 227.889 31.2C227.889 33.2667 228.569 34.3 229.929 34.3ZM242.78 34.88C241.887 35.76 240.713 36.2 239.26 36.2C237.807 36.2 236.633 35.76 235.74 34.88C234.86 34 234.42 32.8267 234.42 31.36C234.42 29.8267 234.86 28.6 235.74 27.68C236.633 26.76 237.807 26.3 239.26 26.3C240.713 26.3 241.887 26.76 242.78 27.68C243.673 28.6 244.12 29.8267 244.12 31.36C244.12 32.8267 243.673 34 242.78 34.88ZM241.14 31.76C241.14 30.7467 240.973 29.9067 240.64 29.24C240.307 28.56 239.847 28.22 239.26 28.22C238.687 28.22 238.233 28.4933 237.9 29.04C237.58 29.5867 237.42 30.3067 237.42 31.2C237.42 32.08 237.58 32.8133 237.9 33.4C238.233 33.9733 238.687 34.26 239.26 34.26C239.86 34.26 240.32 34.0333 240.64 33.58C240.973 33.1133 241.14 32.5067 241.14 31.76ZM245.479 26.7C246.026 26.5267 246.546 26.44 247.039 26.44C248.013 26.44 248.566 26.8333 248.699 27.62C249.513 26.7533 250.433 26.32 251.459 26.32C252.739 26.32 253.613 26.8333 254.079 27.86C254.906 26.8333 255.893 26.32 257.039 26.32C257.893 26.32 258.593 26.58 259.139 27.1C259.686 27.62 259.959 28.36 259.959 29.32C259.959 29.3467 259.946 29.8267 259.919 30.76C259.906 31.6933 259.899 32.4 259.899 32.88C259.899 34.0267 260.013 35 260.239 35.8C259.666 35.9733 259.086 36.06 258.499 36.06C257.433 36.06 256.899 35.6533 256.899 34.84C256.899 34.36 256.919 33.48 256.959 32.2C256.999 30.9067 257.019 30.1267 257.019 29.86C257.019 29.3133 256.926 28.9067 256.739 28.64C256.553 28.36 256.306 28.22 255.999 28.22C255.506 28.22 254.966 28.5467 254.379 29.2C254.406 30.9067 254.419 32.14 254.419 32.9C254.419 34.0733 254.453 35.1 254.519 35.98C254.079 36.02 253.686 36.04 253.339 36.04C252.006 36.04 251.339 35.72 251.339 35.08C251.339 35.0133 251.353 34.5267 251.379 33.62C251.419 32.7133 251.439 31.82 251.439 30.94V29.82C251.439 29.2733 251.339 28.8733 251.139 28.62C250.953 28.3533 250.713 28.22 250.419 28.22C249.926 28.22 249.386 28.5467 248.799 29.2C248.826 30.9067 248.839 32.14 248.839 32.9C248.839 34.0733 248.873 35.1 248.939 35.98C248.499 36.02 248.106 36.04 247.759 36.04C246.426 36.04 245.759 35.72 245.759 35.08C245.759 35.0267 245.773 34.56 245.799 33.68C245.839 32.8 245.859 31.8867 245.859 30.94C245.859 28.7667 245.733 27.3533 245.479 26.7Z" fill="#3B3B3B"/>
<defs>
<linearGradient id="paint0_linear_30_8193" x1="20.6719" y1="6.89062" x2="-3.63672" y2="66.8008" gradientUnits="userSpaceOnUse">
<stop offset="0.22" stop-color="#4D4D4D"/>
<stop offset="1" stop-color="#F0B43D"/>
</linearGradient>
</defs>
</svg>
