<svg width="67" height="67" viewBox="0 0 67 67" fill="none" xmlns="http://www.w3.org/2000/svg">
<path fill-rule="evenodd" clip-rule="evenodd" d="M47.2033 61.4209C43.1709 63.265 38.6871 64.2928 33.9632 64.2928C20.5382 64.2928 9.05206 55.9918 4.35733 44.2426C4.15562 42.6964 4.14179 41.2948 4.27252 40.1493C4.36114 39.3728 5.27868 39.2109 5.74761 39.8361C6.24209 40.4954 7.27947 40.2907 7.48657 39.4931L7.72074 38.5912C7.94945 37.7103 9.14033 37.568 9.57012 38.3702L10.0582 39.2813C10.3643 39.8526 11.1395 39.9575 11.5864 39.488C12.1788 38.8657 13.2274 39.285 13.2274 40.1442V42.7055C13.2274 49.6657 17.0403 55.3549 19.6789 56.7045C20.6305 51.5888 23.0815 44.9648 25.0252 40.4001C16.5578 38.6223 12.3509 33.7185 17.9234 25.2938C17.9234 23.4892 18.2246 21.755 18.7794 20.1386C18.6063 20.0583 18.4346 19.9692 18.2651 19.8713C15.7897 18.4421 14.7098 15.6781 15.8532 13.6977C16.9965 11.7174 19.9302 11.2706 22.4056 12.6998C22.7431 12.8946 23.0547 13.1143 23.3382 13.3534C26.131 10.9056 29.7899 9.42188 33.7953 9.42188C37.7992 9.42188 41.4569 10.9044 44.2492 13.3505C44.5318 13.1125 44.8422 12.8939 45.1784 12.6998C47.6539 11.2706 50.5875 11.7174 51.7309 13.6977C52.8743 15.6781 51.7944 18.4421 49.3189 19.8713C49.1513 19.9681 48.9815 20.0563 48.8104 20.136C49.3658 21.7531 49.6673 23.4882 49.6673 25.2938C55.7095 33.6928 50.8581 38.6707 41.7379 40.436C42.132 41.06 42.5342 41.6892 42.938 42.3209L42.938 42.321L42.9381 42.3211C47.4313 49.3507 52.1215 56.6885 48.0966 60.6902C47.8421 60.9433 47.5426 61.1869 47.2033 61.4209ZM40.832 29.9292H33.9312V32.5428C33.9312 34.4484 35.476 35.9932 37.3816 35.9932C39.2872 35.9932 40.832 34.4484 40.832 32.5428V29.9292ZM33.2411 29.9292H26.3402V32.5428C26.3402 34.4484 27.8851 35.9932 29.7907 35.9932C31.6963 35.9932 33.2411 34.4484 33.2411 32.5428V29.9292Z" fill="url(#paint0_linear_30_8148)"/>
<path d="M20.4141 21.9844H30.8828V26.6953H20.4141V21.9844Z" fill="#F0B43D"/>
<path d="M33.5 21.9844H43.9688V26.6953H33.5V21.9844Z" fill="#F0B43D"/>
<path d="M30.3594 23.5547H34.0234V24.6016H30.3594V23.5547Z" fill="#F0B43D"/>
<defs>
<linearGradient id="paint0_linear_30_8148" x1="28.2656" y1="9.42188" x2="-4.97265" y2="91.3399" gradientUnits="userSpaceOnUse">
<stop offset="0.22" stop-color="#4D4D4D"/>
<stop offset="1" stop-color="#F0B43D"/>
</linearGradient>
</defs>
</svg>
