<svg width="109" height="150" viewBox="0 0 109 150" fill="none" xmlns="http://www.w3.org/2000/svg">
<path fill-rule="evenodd" clip-rule="evenodd" d="M76.7934 99.9235C70.2333 102.924 62.9387 104.596 55.2536 104.596C33.413 104.596 14.7265 91.0912 7.08879 71.9768C6.69311 68.9437 6.74183 66.2525 7.11137 64.2217C7.25361 63.44 8.20827 63.285 8.68501 63.9206L10.0985 65.8052C10.6012 66.4754 11.6559 66.2674 11.8664 65.4564L12.9633 61.2318C13.192 60.3509 14.3828 60.2086 14.8126 61.0108L16.7212 64.5734C17.0429 65.1737 17.8574 65.2839 18.327 64.7906L19.7949 63.2486C20.4174 62.5948 21.5192 63.0353 21.5192 63.9382V69.4761C21.5192 80.7994 27.7222 90.055 32.0149 92.2506C33.563 83.9281 37.5506 73.1517 40.7127 65.7256C26.9373 62.8333 20.0932 54.8555 29.159 41.1496C29.159 38.2138 29.6489 35.3925 30.5515 32.7629C30.2699 32.6321 29.9907 32.4872 29.7149 32.328C25.6877 30.0029 23.9308 25.5062 25.7909 22.2844C27.6511 19.0626 32.4237 18.3357 36.451 20.6608C37 20.9778 37.5069 21.3352 37.9681 21.7242C42.5116 17.7419 48.4641 15.3281 54.9805 15.3281C61.4943 15.3281 67.4448 17.7401 71.9875 21.7195C72.4473 21.3323 72.9523 20.9766 73.4992 20.6608C77.5264 18.3357 82.2991 19.0626 84.1592 22.2844C86.0193 25.5062 84.2625 30.0029 80.2352 32.328C79.9625 32.4854 79.6864 32.6289 79.408 32.7585C80.3115 35.3894 80.802 38.2122 80.802 41.1496C90.6319 54.8137 82.7393 62.9121 67.902 65.7839C68.543 66.7988 69.1971 67.8221 69.8537 68.8495L69.8545 68.8507C77.1643 80.287 84.7947 92.2246 78.2468 98.7347C77.8326 99.1465 77.3454 99.5429 76.7934 99.9235ZM66.4282 48.6908H55.2014V52.9427C55.2014 56.0429 57.7146 58.5561 60.8148 58.5561C63.915 58.5561 66.4282 56.0429 66.4282 52.9427V48.6908ZM54.0788 48.6908H42.852V52.9427C42.852 56.0429 45.3652 58.5561 48.4654 58.5561C51.5656 58.5561 54.0788 56.0429 54.0788 52.9427V48.6908Z" fill="url(#paint0_linear_30_8190)"/>
<path d="M33.2109 35.7656H50.2422V43.4297H33.2109V35.7656Z" fill="#F0B43D"/>
<path d="M54.5 35.7656H71.5312V43.4297H54.5V35.7656Z" fill="#F0B43D"/>
<path d="M49.3906 38.3203H55.3516V40.0234H49.3906V38.3203Z" fill="#F0B43D"/>
<path d="M16.8 132.336C18.4213 133.083 19.232 133.957 19.232 134.96C19.232 135.579 18.9653 136.123 18.432 136.592C17.92 137.061 17.2693 137.413 16.48 137.648C15.712 137.883 14.976 138.053 14.272 138.16C13.568 138.267 12.928 138.32 12.352 138.32C10.9653 138.32 9.64267 138.139 8.384 137.776C7.12533 137.392 5.92 136.805 4.768 136.016C3.63733 135.205 2.73067 134.064 2.048 132.592C1.36533 131.099 1.024 129.36 1.024 127.376C1.024 123.963 2.03733 121.296 4.064 119.376C6.09067 117.435 8.84267 116.464 12.32 116.464C14.176 116.464 15.7333 116.805 16.992 117.488C18.272 118.149 18.912 118.971 18.912 119.952C18.912 120.699 18.6027 121.307 17.984 121.776C17.3653 122.245 16.544 122.544 15.52 122.672C15.1573 121.691 14.5813 120.955 13.792 120.464C13.0027 119.952 12.16 119.696 11.264 119.696C9.792 119.696 8.576 120.368 7.616 121.712C6.67733 123.056 6.208 124.731 6.208 126.736C6.208 129.104 6.688 131.088 7.648 132.688C8.62933 134.288 9.99467 135.088 11.744 135.088C12.7253 135.088 13.664 134.864 14.56 134.416C15.4773 133.968 16.224 133.275 16.8 132.336ZM34.429 136.208C32.9997 137.616 31.1223 138.32 28.797 138.32C26.4717 138.32 24.5943 137.616 23.165 136.208C21.757 134.8 21.053 132.923 21.053 130.576C21.053 128.123 21.757 126.16 23.165 124.688C24.5943 123.216 26.4717 122.48 28.797 122.48C31.1223 122.48 32.9997 123.216 34.429 124.688C35.8583 126.16 36.573 128.123 36.573 130.576C36.573 132.923 35.8583 134.8 34.429 136.208ZM31.805 131.216C31.805 129.595 31.5383 128.251 31.005 127.184C30.4717 126.096 29.7357 125.552 28.797 125.552C27.8797 125.552 27.1543 125.989 26.621 126.864C26.109 127.739 25.853 128.891 25.853 130.32C25.853 131.728 26.109 132.901 26.621 133.84C27.1543 134.757 27.8797 135.216 28.797 135.216C29.757 135.216 30.493 134.853 31.005 134.128C31.5383 133.381 31.805 132.411 31.805 131.216ZM41.436 138.32C40.6253 138.32 39.932 138.043 39.356 137.488C38.8013 136.912 38.524 136.187 38.524 135.312C38.524 134.48 38.8227 133.776 39.42 133.2C40.0173 132.624 40.7107 132.336 41.5 132.336C42.2893 132.336 42.9613 132.624 43.516 133.2C44.092 133.776 44.38 134.48 44.38 135.312C44.38 136.165 44.0813 136.88 43.484 137.456C42.8867 138.032 42.204 138.32 41.436 138.32ZM66.74 124.848V124.208C66.74 121.861 66.644 119.44 66.452 116.944C67.2627 116.773 68.1053 116.688 68.98 116.688C69.7907 116.688 70.4733 116.827 71.028 117.104C71.604 117.381 71.892 117.819 71.892 118.416C71.892 118.523 71.8493 119.387 71.764 121.008C71.7 122.629 71.668 123.984 71.668 125.072V131.504C71.668 133.893 71.924 135.941 72.436 137.648C71.6467 137.947 70.676 138.096 69.524 138.096C69.0973 138.096 68.7453 138.064 68.468 138C68.1907 137.957 67.892 137.861 67.572 137.712C67.2733 137.541 67.0493 137.264 66.9 136.88C66.7507 136.475 66.676 135.963 66.676 135.344C66.676 134.939 66.6867 134.181 66.708 133.072C66.7293 131.941 66.74 131.12 66.74 130.608V127.984C65.9293 128.027 64.6813 128.048 62.996 128.048C61.2467 128.048 59.9453 128.027 59.092 127.984V131.504C59.092 133.893 59.348 135.941 59.86 137.648C59.0707 137.947 58.1 138.096 56.948 138.096C56.5213 138.096 56.1693 138.064 55.892 138C55.6147 137.957 55.316 137.861 54.996 137.712C54.6973 137.541 54.4733 137.264 54.324 136.88C54.1747 136.475 54.1 135.963 54.1 135.344C54.1 134.939 54.1107 134.181 54.132 133.072C54.1533 131.941 54.164 131.12 54.164 130.608V124.208C54.164 121.861 54.068 119.44 53.876 116.944C54.6867 116.773 55.5293 116.688 56.404 116.688C57.2147 116.688 57.8973 116.827 58.452 117.104C59.028 117.381 59.316 117.819 59.316 118.416C59.316 118.523 59.2733 119.355 59.188 120.912C59.124 122.469 59.092 123.781 59.092 124.848C59.9027 124.891 61.204 124.912 62.996 124.912C64.7027 124.912 65.9507 124.891 66.74 124.848ZM90.2605 137.68C89.2152 137.957 88.3192 138.096 87.5725 138.096C86.8898 138.096 86.3032 137.947 85.8125 137.648C85.3432 137.328 85.0872 136.869 85.0445 136.272C83.4872 137.637 81.8018 138.32 79.9885 138.32C76.9805 138.32 75.4765 136.816 75.4765 133.808C75.4765 133.744 75.4872 132.965 75.5085 131.472C75.5512 129.979 75.5725 128.859 75.5725 128.112C75.5725 125.893 75.4018 124.229 75.0605 123.12C75.8925 122.843 76.7565 122.704 77.6525 122.704C79.4872 122.704 80.4045 123.355 80.4045 124.656C80.4045 125.36 80.3725 126.672 80.3085 128.592C80.2445 130.512 80.2125 131.664 80.2125 132.048C80.2125 133.072 80.3725 133.861 80.6925 134.416C81.0338 134.971 81.4498 135.248 81.9405 135.248C83.0285 135.248 84.0418 134.747 84.9805 133.744C84.9592 132.912 84.9485 131.621 84.9485 129.872C84.9485 127.397 84.8738 125.147 84.7245 123.12C85.5778 122.843 86.3992 122.704 87.1885 122.704C88.0418 122.704 88.7032 122.832 89.1725 123.088C89.6418 123.344 89.8765 123.877 89.8765 124.688C89.8765 124.901 89.8445 125.552 89.7805 126.64C89.7378 127.728 89.7058 128.581 89.6845 129.2V131.504C89.6845 134.213 89.8765 136.272 90.2605 137.68ZM98.092 124.24C99.3293 123.088 100.663 122.512 102.092 122.512C104.012 122.512 105.495 123.216 106.54 124.624C107.585 126.011 108.108 127.803 108.108 130C108.108 132.347 107.436 134.32 106.092 135.92C104.748 137.52 102.817 138.32 100.3 138.32C97.5693 138.32 95.2227 137.595 93.26 136.144C93.4093 134.864 93.484 132.571 93.484 129.264C93.484 126.512 93.42 123.365 93.292 119.824C93.1853 117.2 93.004 115.472 92.748 114.64C93.7507 114.363 94.6467 114.224 95.436 114.224C97.2707 114.224 98.188 114.917 98.188 116.304C98.188 116.325 98.1667 117.872 98.124 120.944C98.124 121.499 98.1133 122.139 98.092 122.864C98.092 123.589 98.092 124.048 98.092 124.24ZM98.156 126.8C98.156 127.035 98.156 127.664 98.156 128.688C98.1773 129.691 98.188 130.491 98.188 131.088C98.188 132.731 98.1453 133.893 98.06 134.576C98.956 135.024 99.7773 135.248 100.524 135.248C102.423 135.248 103.372 133.605 103.372 130.32C103.372 129.851 103.34 129.392 103.276 128.944C103.233 128.496 103.137 127.995 102.988 127.44C102.86 126.864 102.625 126.405 102.284 126.064C101.943 125.723 101.527 125.552 101.036 125.552C100.204 125.552 99.244 125.968 98.156 126.8Z" fill="#3B3B3B"/>
<defs>
<linearGradient id="paint0_linear_30_8190" x1="45.9844" y1="15.3281" x2="-8.08983" y2="148.598" gradientUnits="userSpaceOnUse">
<stop offset="0.22" stop-color="#4D4D4D"/>
<stop offset="1" stop-color="#F0B43D"/>
</linearGradient>
</defs>
</svg>
